# xmcd CD database file
#
# Track frame offsets:
#	150
#	64005
#	107467
#	146175
#	211482
#
# Disc length: 4054 seconds
#
# Revision: 1
# Processed by: cddbd v1.5.2PL0 Copyright (c) Steve Scherf et al.
# Submitted via: CDex 1.70beta2
#
DISCID=470fd405
DTITLE=Wadada Leo Smith - Ten Freedom Summers [CD4]
DYEAR=2011
DGENRE=Jazz
TTITLE0=America, Parts 1, 2 and 3
TTITLE1=September 11th, 2001: A Memorial
TTITLE2=Fannie Lou Hamer and the Mississippi Freedom Democratic Party, 1964 
TTITLE3=Democracy
TTITLE4=Martin Luther King, Jr: Memphis, the Prophecy
EXTD=YEAR: 2011
EXTT0=
EXTT1=
EXTT2=
EXTT3=
EXTT4=
PLAYORDER=
